<svg width="36" height="36" viewBox="0 0 36 36" fill="none" xmlns="http://www.w3.org/2000/svg">
<path d="M30.6705 30.678H25.3395V22.3245C25.3395 20.3325 25.299 17.769 22.5615 17.769C19.782 17.769 19.3575 19.9365 19.3575 22.1775V30.678H14.0265V13.5H19.1475V15.8415H19.2165C19.932 14.4915 21.672 13.0665 24.2715 13.0665C29.673 13.0665 30.672 16.6215 30.672 21.249L30.6705 30.678ZM8.0055 11.1495C7.59882 11.1497 7.19609 11.0697 6.82036 10.9141C6.44463 10.7584 6.10329 10.5302 5.81586 10.2425C5.52843 9.95481 5.30056 9.61325 5.14529 9.23737C4.99002 8.86149 4.91041 8.45868 4.911 8.052C4.9113 7.43967 5.09316 6.84118 5.4336 6.33221C5.77404 5.82324 6.25776 5.42665 6.8236 5.1926C7.38943 4.95854 8.01196 4.89753 8.61247 5.01728C9.21298 5.13703 9.76449 5.43217 10.1973 5.86536C10.63 6.29855 10.9246 6.85035 11.0438 7.45097C11.163 8.05159 11.1014 8.67407 10.8668 9.23967C10.6322 9.80528 10.2351 10.2886 9.7258 10.6286C9.2165 10.9685 8.61783 11.1498 8.0055 11.1495ZM10.6785 30.678H5.3325V13.5H10.6785V30.678ZM33.3375 0H2.6565C1.188 0 0 1.161 0 2.5935V33.4065C0 34.8405 1.188 36 2.6565 36H33.333C34.8 36 36 34.8405 36 33.4065V2.5935C36 1.161 34.8 0 33.333 0H33.3375Z" fill="#A8A8A8"/>
</svg>
