<svg width="80" height="80" xmlns="http://www.w3.org/2000/svg" xmlns:xlink="http://www.w3.org/1999/xlink" xml:space="preserve" overflow="hidden"><g transform="translate(-790 -124)"><path d="M790 124 870 124 870 204 790 204Z" fill="#E7157B" fill-rule="evenodd"/><path d="M824.065 179.632 827 179.632 827 177.615 824.065 177.615 824.065 179.632ZM829 179.632 832 179.632 832 177.615 829 177.615 829 179.632ZM817 138.629 804 145.082 804 185.193 817 189.59 817 138.629ZM819 151.393 819 177.615 822 177.615 822 179.632 819 179.632 819 190.992C819 191.316 818.845 191.621 818.584 191.81 818.412 191.936 818.207 192 818 192 817.894 192 817.786 191.983 817.682 191.948L802.682 186.876C802.274 186.738 802 186.352 802 185.92L802 144.454C802 144.07 802.217 143.719 802.559 143.549L817.559 136.104C817.868 135.95 818.235 135.968 818.528 136.153 818.821 136.336 819 136.66 819 137.009L819 149.376 822 149.376 822 151.393 819 151.393ZM834 179.632 837 179.632 837 177.615 834 177.615 834 179.632ZM834.065 151.393 837 151.393 837 149.376 834.065 149.376 834.065 151.393ZM829.065 151.393 832 151.393 832 149.376 829.065 149.376 829.065 151.393ZM824.065 151.393 827 151.393 827 149.376 824.065 149.376 824.065 151.393ZM856 145.082 843 138.629 843 189.59 856 185.193 856 145.082ZM858 185.92C858 186.352 857.726 186.738 857.318 186.876L842.318 191.948C842.214 191.983 842.106 192 842 192 841.793 192 841.588 191.936 841.416 191.81 841.155 191.621 841 191.316 841 190.992L841 179.632 839.065 179.632 839.065 177.615 841 177.615 841 151.393 839.065 151.393 839.065 149.376 841 149.376 841 137.009C841 136.66 841.179 136.336 841.472 136.153 841.765 135.968 842.131 135.95 842.441 136.104L857.441 143.549C857.783 143.719 858 144.07 858 144.454L858 185.92ZM832.934 157.807 831.066 157.083 826.066 170.193 827.934 170.918 832.934 157.807ZM839.707 164.209C840.098 163.814 840.098 163.176 839.707 162.783L835.707 158.749 834.293 160.175 837.586 163.496 834.293 166.817 835.707 168.243 839.707 164.209ZM824.293 168.243 820.293 164.209C819.902 163.814 819.902 163.176 820.293 162.783L824.293 158.749 825.707 160.175 822.414 163.496 825.707 166.817 824.293 168.243Z" fill="#FFFFFF" fill-rule="evenodd"/></g></svg>