<svg width="80" height="80" xmlns="http://www.w3.org/2000/svg" xmlns:xlink="http://www.w3.org/1999/xlink" xml:space="preserve" overflow="hidden"><g transform="translate(-551 -124)"><path d="M551 124 631 124 631 204 551 204Z" fill="#8C4FFF" fill-rule="evenodd"/><path d="M606.122 176.123C606.122 174.469 604.776 173.123 603.122 173.123 601.468 173.123 600.122 174.469 600.122 176.123 600.122 177.777 601.468 179.123 603.122 179.123 604.776 179.123 606.122 177.777 606.122 176.123L606.122 176.123ZM608.122 176.123C608.122 178.88 605.879 181.123 603.122 181.123 600.365 181.123 598.122 178.88 598.122 176.123 598.122 173.366 600.365 171.123 603.122 171.123 605.879 171.123 608.122 173.366 608.122 176.123L608.122 176.123ZM581.392 161.692C581.392 160.038 580.046 158.692 578.392 158.692 576.737 158.692 575.392 160.038 575.392 161.692 575.392 163.346 576.737 164.692 578.392 164.692 580.046 164.692 581.392 163.346 581.392 161.692L581.392 161.692ZM583.392 161.692C583.392 164.449 581.148 166.692 578.392 166.692 575.635 166.692 573.392 164.449 573.392 161.692 573.392 158.935 575.635 156.692 578.392 156.692 581.148 156.692 583.392 158.935 583.392 161.692L583.392 161.692ZM590.73 146.007C590.73 147.661 592.076 149.007 593.73 149.007 595.385 149.007 596.73 147.661 596.73 146.007 596.73 144.352 595.385 143.007 593.73 143.007 592.076 143.007 590.73 144.352 590.73 146.007L590.73 146.007ZM588.73 146.007C588.73 143.25 590.974 141.007 593.73 141.007 596.487 141.007 598.73 143.25 598.73 146.007 598.73 148.764 596.487 151.007 593.73 151.007 590.974 151.007 588.73 148.764 588.73 146.007L588.73 146.007ZM617 164C617 154.727 612.028 146.148 604.012 141.509 602.575 141.799 601.185 142.196 599.451 142.823L598.771 140.942C599.676 140.616 600.486 140.352 601.266 140.126 598.046 138.737 594.548 138 591 138 589.311 138 587.649 138.175 586.025 138.492 587.201 139.18 588.244 139.866 589.257 140.634L588.048 142.227C586.62 141.145 585.14 140.228 583.197 139.21 573.378 142.298 566.306 150.958 565.183 161.128 567.242 160.711 569.219 160.484 571.414 160.43L571.463 162.429C569.163 162.486 567.187 162.73 565.027 163.205 565.018 163.47 565 163.738 565 164 565 172.658 569.283 180.636 576.327 185.447 575.074 181.716 574.45 178.19 574.45 174.746 574.45 172.782 574.788 171.169 575.145 169.462 575.228 169.067 575.312 168.665 575.394 168.248L577.357 168.635C577.273 169.059 577.187 169.47 577.103 169.873 576.753 171.545 576.45 172.989 576.45 174.746 576.45 178.654 577.308 182.695 579.054 187.083 582.773 189.014 586.789 190 591 190 593.756 190 596.446 189.56 599.012 188.714 600.019 186.727 600.766 184.852 601.39 182.699L603.311 183.256C602.855 184.826 602.332 186.253 601.709 187.677 603.323 186.951 604.85 186.053 606.283 185.005 605.938 184.159 605.568 183.318 605.159 182.499L606.948 181.604C607.296 182.3 607.615 183.012 607.92 183.728 613.705 178.775 617 171.66 617 164L617 164ZM619 164C619 172.727 615.034 180.799 608.121 186.149 606.409 187.479 604.552 188.583 602.589 189.472 601.756 189.85 600.908 190.2 600.036 190.494 597.156 191.493 594.113 192 591 192 586.4 192 581.832 190.854 577.788 188.686 568.667 183.806 563 174.347 563 164 563 163.314 563.018 162.792 563.059 162.309 563.74 150.625 571.756 140.512 583.001 137.166 585.562 136.393 588.255 136 591 136 595.808 136 600.539 137.238 604.684 139.579 613.513 144.525 619 153.884 619 164L619 164ZM588.314 149.463 587 147.956C584.758 149.912 583.014 151.989 580.977 155.126L582.655 156.215C584.583 153.244 586.223 151.288 588.314 149.463L588.314 149.463ZM585.275 162.427 584.625 164.318C589.218 165.895 593.225 168.411 597.234 172.236L598.615 170.789C594.389 166.758 590.15 164.101 585.275 162.427L585.275 162.427ZM598.646 150.668C602.398 156.39 604.511 162.671 604.925 169.338L602.929 169.462C602.536 163.146 600.533 157.192 596.975 151.765L598.646 150.668Z" fill="#FFFFFF" fill-rule="evenodd"/></g></svg>