<svg width="80" height="80" xmlns="http://www.w3.org/2000/svg" xmlns:xlink="http://www.w3.org/1999/xlink" xml:space="preserve" overflow="hidden"><g transform="translate(-551 -124)"><path d="M551 124 631 124 631 204 551 204Z" fill="#ED7100" fill-rule="evenodd"/><path d="M579.008 190 566.591 190 580.324 161.296 586.546 174.106 579.008 190ZM581.22 158.553C581.051 158.208 580.701 157.989 580.318 157.989L580.315 157.989C579.929 157.99 579.578 158.211 579.412 158.558L564.098 190.569C563.95 190.879 563.971 191.243 564.155 191.534 564.338 191.824 564.658 192 565.002 192L579.642 192C580.03 192 580.382 191.777 580.548 191.428L588.564 174.528C588.693 174.254 588.692 173.937 588.559 173.665L581.22 158.553ZM615.995 190 603.659 190 583.867 148.57C583.701 148.222 583.349 148 582.962 148L574.89 148 574.899 138 590.72 138 610.42 179.429C610.586 179.777 610.939 180 611.326 180L615.995 180 615.995 190ZM616.998 178 611.96 178 592.259 136.571C592.094 136.223 591.741 136 591.353 136L573.898 136C573.345 136 572.896 136.447 572.895 136.999L572.884 148.999C572.884 149.265 572.989 149.519 573.178 149.707 573.365 149.895 573.62 150 573.887 150L582.329 150 602.122 191.43C602.289 191.778 602.639 192 603.026 192L616.998 192C617.552 192 618 191.552 618 191L618 179C618 178.448 617.552 178 616.998 178L616.998 178Z" fill="#FFFFFF" fill-rule="evenodd"/></g></svg>