<svg width="80" height="80" xmlns="http://www.w3.org/2000/svg" xmlns:xlink="http://www.w3.org/1999/xlink" xml:space="preserve" overflow="hidden"><g transform="translate(-314 -124)"><path d="M314 124 394 124 394 204 314 204Z" fill="#7AA116" fill-rule="evenodd"/><path d="M374.836 166.893 375.22 164.189C378.761 166.31 378.807 167.186 378.806 167.21 378.8 167.215 378.196 167.719 374.836 166.893L374.836 166.893ZM372.893 166.353C366.773 164.501 358.25 160.591 354.801 158.961 354.801 158.947 354.805 158.934 354.805 158.92 354.805 157.595 353.727 156.517 352.401 156.517 351.077 156.517 349.999 157.595 349.999 158.92 349.999 160.245 351.077 161.323 352.401 161.323 352.983 161.323 353.511 161.106 353.928 160.761 357.986 162.682 366.443 166.535 372.608 168.355L370.17 185.561C370.163 185.608 370.16 185.655 370.16 185.702 370.16 187.217 363.453 190 352.494 190 341.419 190 334.641 187.217 334.641 185.702 334.641 185.656 334.638 185.611 334.632 185.566L329.538 148.359C333.947 151.394 343.43 153 352.5 153 361.556 153 371.023 151.4 375.441 148.374L372.893 166.353ZM329 144.478C329.072 143.162 336.634 138 352.5 138 368.364 138 375.927 143.161 376 144.478L376 144.927C375.13 147.878 365.33 151 352.5 151 339.648 151 329.843 147.868 329 144.913L329 144.478ZM378 144.5C378 141.035 368.066 136 352.5 136 336.934 136 327 141.035 327 144.5L327.094 145.254 332.642 185.778C332.775 190.31 344.861 192 352.494 192 361.966 192 372.029 189.822 372.159 185.781L374.555 168.884C375.888 169.203 376.985 169.366 377.866 169.366 379.049 169.366 379.849 169.077 380.334 168.499 380.732 168.025 380.884 167.451 380.77 166.84 380.511 165.456 378.868 163.964 375.522 162.055L377.898 145.293 378 144.5Z" fill="#FFFFFF" fill-rule="evenodd"/></g></svg>