<svg width="35" height="35" viewBox="0 0 35 35" fill="none" xmlns="http://www.w3.org/2000/svg">
<circle cx="17.5007" cy="17.5" r="15.3093" fill="white" fill-opacity="0.06"/>
<path fill-rule="evenodd" clip-rule="evenodd" d="M24.1814 4.57711C24.6685 4.88649 24.8655 5.38071 24.6583 5.77366L19.7209 15.1365L30.7867 18.1016C31.262 18.229 31.6439 18.5424 31.7729 18.911C31.9017 19.2796 31.7561 19.6404 31.3961 19.8428L12.3949 30.5304C11.9569 30.7767 11.3059 30.7323 10.8188 30.4229C10.3317 30.1136 10.1348 29.6193 10.342 29.2264L15.2794 19.8635L4.21338 16.8984C3.73814 16.771 3.35642 16.4577 3.22742 16.0891C3.0984 15.7204 3.24423 15.3596 3.60408 15.1572L22.6053 4.46974C23.0433 4.22338 23.6943 4.26772 24.1814 4.57711ZM7.2159 15.7306L17.2536 18.4201C17.6224 18.519 17.9407 18.7318 18.1237 19.002C18.3068 19.2723 18.3362 19.5726 18.2041 19.8231L14.5794 26.6968L27.7842 19.2695L17.7466 16.5799C17.3778 16.4811 17.0596 16.2683 16.8765 15.998C16.6934 15.7278 16.664 15.4274 16.7961 15.1769L20.4208 8.30327L7.2159 15.7306Z" fill="#081217"/>
<path d="M7.2159 15.7306L17.2536 18.4201C17.6224 18.519 17.9407 18.7318 18.1237 19.002C18.3068 19.2723 18.3362 19.5726 18.2041 19.8231L14.5794 26.6968L27.7842 19.2695L17.7466 16.5799C17.3778 16.4811 17.0596 16.2683 16.8765 15.998C16.6934 15.7278 16.664 15.4274 16.7961 15.1769L20.4208 8.30327L7.2159 15.7306Z" fill="url(#paint0_linear_434_3)"/>
<defs>
<linearGradient id="paint0_linear_434_3" x1="19.9656" y1="8.29879" x2="15.0347" y2="26.7012" gradientUnits="userSpaceOnUse">
<stop stop-color="#1DD3B0"/>
<stop offset="1" stop-color="#AFFC41"/>
</linearGradient>
</defs>
</svg>
