<svg width="39" height="36" viewBox="0 0 39 36" fill="none" xmlns="http://www.w3.org/2000/svg">
<path d="M19.053 0C8.52624 0 0 8.26413 0 18.457C0 26.6135 5.4587 33.5302 13.0275 35.9681C13.9802 36.1419 14.3295 35.5713 14.3295 35.0806C14.3295 34.6423 14.3136 33.481 14.3057 31.9429C9.00574 33.0565 7.88796 29.4666 7.88796 29.4666C7.02105 27.3364 5.76831 26.7673 5.76831 26.7673C4.04242 25.623 5.90168 25.646 5.90168 25.646C7.81493 25.7752 8.81997 27.5471 8.81997 27.5471C10.5189 30.3695 13.28 29.5543 14.3692 29.0821C14.5407 27.8886 15.0313 27.0749 15.5759 26.6135C11.3445 26.1521 6.8972 24.5648 6.8972 17.4926C6.8972 15.4777 7.63551 13.832 8.85808 12.54C8.64373 12.074 8.00069 10.1975 9.02479 7.65505C9.02479 7.65505 10.6205 7.15978 14.2644 9.54689C15.7886 9.13622 17.4081 8.9332 19.0276 8.92397C20.6472 8.9332 22.2667 9.13622 23.7909 9.54689C27.411 7.15978 29.0067 7.65505 29.0067 7.65505C30.0308 10.1975 29.3877 12.074 29.1972 12.54C30.4118 13.832 31.1501 15.4777 31.1501 17.4926C31.1501 24.5832 26.6965 26.1444 22.4572 26.5981C23.1241 27.1518 23.7433 28.2838 23.7433 30.0126C23.7433 32.4828 23.7195 34.4669 23.7195 35.0668C23.7195 35.5513 24.0529 36.1281 25.0294 35.9435C32.6522 33.5226 38.1061 26.6012 38.1061 18.457C38.1061 8.26413 29.5751 0 19.053 0Z" fill="#A8A8A8"/>
</svg>
